<mxfile host="app.diagrams.net" modified="2021-12-26T20:37:03.758Z" agent="5.0 (Windows NT 10.0; Win64; x64) AppleWebKit/537.36 (KHTML, like Gecko) Chrome/94.0.4606.85 YaBrowser/21.11.4.727 Yowser/2.5 Safari/537.36" etag="dFdioNryYPitFMBX3mLS" version="16.1.0" type="github">
  <diagram id="NjhTPVbKQHHZxHIw1Mg0" name="Page-1">
    <mxGraphModel dx="2933" dy="987" grid="1" gridSize="10" guides="1" tooltips="1" connect="1" arrows="1" fold="1" page="1" pageScale="1" pageWidth="827" pageHeight="1169" math="0" shadow="0">
      <root>
        <mxCell id="0" />
        <mxCell id="1" parent="0" />
        <mxCell id="x4UWKTNgoqD-uEIDpkws-1" value="Упростить процедуру работы с журналом" style="ellipse;whiteSpace=wrap;html=1;" vertex="1" parent="1">
          <mxGeometry x="690" y="40" width="120" height="80" as="geometry" />
        </mxCell>
        <mxCell id="x4UWKTNgoqD-uEIDpkws-2" value="Ввести в обиход электронную систему" style="ellipse;whiteSpace=wrap;html=1;" vertex="1" parent="1">
          <mxGeometry x="280" y="160" width="120" height="80" as="geometry" />
        </mxCell>
        <mxCell id="x4UWKTNgoqD-uEIDpkws-3" value="" style="endArrow=none;html=1;rounded=0;entryX=0;entryY=1;entryDx=0;entryDy=0;exitX=1;exitY=0;exitDx=0;exitDy=0;" edge="1" parent="1" source="x4UWKTNgoqD-uEIDpkws-2" target="x4UWKTNgoqD-uEIDpkws-1">
          <mxGeometry width="50" height="50" relative="1" as="geometry">
            <mxPoint x="390" y="240" as="sourcePoint" />
            <mxPoint x="440" y="190" as="targetPoint" />
          </mxGeometry>
        </mxCell>
        <mxCell id="x4UWKTNgoqD-uEIDpkws-4" value="обеспечить удобство пользования" style="ellipse;whiteSpace=wrap;html=1;" vertex="1" parent="1">
          <mxGeometry x="40" y="280" width="120" height="80" as="geometry" />
        </mxCell>
        <mxCell id="x4UWKTNgoqD-uEIDpkws-5" value="" style="endArrow=none;html=1;rounded=0;entryX=0;entryY=1;entryDx=0;entryDy=0;exitX=1;exitY=0;exitDx=0;exitDy=0;" edge="1" parent="1" source="x4UWKTNgoqD-uEIDpkws-4" target="x4UWKTNgoqD-uEIDpkws-2">
          <mxGeometry width="50" height="50" relative="1" as="geometry">
            <mxPoint x="60" y="320" as="sourcePoint" />
            <mxPoint x="110" y="270" as="targetPoint" />
          </mxGeometry>
        </mxCell>
        <mxCell id="x4UWKTNgoqD-uEIDpkws-6" value="обеспечить доступность" style="ellipse;whiteSpace=wrap;html=1;" vertex="1" parent="1">
          <mxGeometry x="-120" y="400" width="120" height="80" as="geometry" />
        </mxCell>
        <mxCell id="x4UWKTNgoqD-uEIDpkws-7" value="" style="endArrow=none;html=1;rounded=0;entryX=0;entryY=1;entryDx=0;entryDy=0;exitX=1;exitY=0;exitDx=0;exitDy=0;" edge="1" parent="1" source="x4UWKTNgoqD-uEIDpkws-6" target="x4UWKTNgoqD-uEIDpkws-4">
          <mxGeometry width="50" height="50" relative="1" as="geometry">
            <mxPoint y="410" as="sourcePoint" />
            <mxPoint x="50" y="360" as="targetPoint" />
            <Array as="points" />
          </mxGeometry>
        </mxCell>
        <mxCell id="x4UWKTNgoqD-uEIDpkws-8" value="Запустить мобильное приложение" style="ellipse;whiteSpace=wrap;html=1;" vertex="1" parent="1">
          <mxGeometry x="-200" y="560" width="120" height="80" as="geometry" />
        </mxCell>
        <mxCell id="x4UWKTNgoqD-uEIDpkws-9" value="" style="endArrow=none;html=1;rounded=0;entryX=0;entryY=1;entryDx=0;entryDy=0;exitX=0.5;exitY=0;exitDx=0;exitDy=0;" edge="1" parent="1" source="x4UWKTNgoqD-uEIDpkws-8" target="x4UWKTNgoqD-uEIDpkws-6">
          <mxGeometry width="50" height="50" relative="1" as="geometry">
            <mxPoint x="-160" y="560" as="sourcePoint" />
            <mxPoint x="-110" y="510" as="targetPoint" />
          </mxGeometry>
        </mxCell>
        <mxCell id="x4UWKTNgoqD-uEIDpkws-10" value="Запустить веб портал" style="ellipse;whiteSpace=wrap;html=1;" vertex="1" parent="1">
          <mxGeometry x="-40" y="560" width="120" height="80" as="geometry" />
        </mxCell>
        <mxCell id="x4UWKTNgoqD-uEIDpkws-11" value="" style="endArrow=none;html=1;rounded=0;entryX=1;entryY=1;entryDx=0;entryDy=0;exitX=0.5;exitY=0;exitDx=0;exitDy=0;" edge="1" parent="1" source="x4UWKTNgoqD-uEIDpkws-10" target="x4UWKTNgoqD-uEIDpkws-6">
          <mxGeometry width="50" height="50" relative="1" as="geometry">
            <mxPoint x="290" y="530" as="sourcePoint" />
            <mxPoint x="340" y="480" as="targetPoint" />
          </mxGeometry>
        </mxCell>
        <mxCell id="x4UWKTNgoqD-uEIDpkws-12" value="привести приложение к современным UX стандартам" style="ellipse;whiteSpace=wrap;html=1;" vertex="1" parent="1">
          <mxGeometry x="200" y="400" width="120" height="80" as="geometry" />
        </mxCell>
        <mxCell id="x4UWKTNgoqD-uEIDpkws-13" value="" style="endArrow=none;html=1;rounded=0;entryX=1;entryY=1;entryDx=0;entryDy=0;exitX=0;exitY=0;exitDx=0;exitDy=0;" edge="1" parent="1" source="x4UWKTNgoqD-uEIDpkws-12" target="x4UWKTNgoqD-uEIDpkws-4">
          <mxGeometry width="50" height="50" relative="1" as="geometry">
            <mxPoint x="310" y="370" as="sourcePoint" />
            <mxPoint x="360" y="320" as="targetPoint" />
          </mxGeometry>
        </mxCell>
        <mxCell id="x4UWKTNgoqD-uEIDpkws-14" value="Разработать юзер френдли интерфейс" style="ellipse;whiteSpace=wrap;html=1;" vertex="1" parent="1">
          <mxGeometry x="120" y="560" width="120" height="80" as="geometry" />
        </mxCell>
        <mxCell id="x4UWKTNgoqD-uEIDpkws-15" value="организовать интуитивно понятную навигацию" style="ellipse;whiteSpace=wrap;html=1;" vertex="1" parent="1">
          <mxGeometry x="280" y="560" width="120" height="80" as="geometry" />
        </mxCell>
        <mxCell id="x4UWKTNgoqD-uEIDpkws-16" value="" style="endArrow=none;html=1;rounded=0;entryX=0;entryY=1;entryDx=0;entryDy=0;exitX=0.5;exitY=0;exitDx=0;exitDy=0;" edge="1" parent="1" source="x4UWKTNgoqD-uEIDpkws-14" target="x4UWKTNgoqD-uEIDpkws-12">
          <mxGeometry width="50" height="50" relative="1" as="geometry">
            <mxPoint x="155" y="550" as="sourcePoint" />
            <mxPoint x="205" y="500" as="targetPoint" />
          </mxGeometry>
        </mxCell>
        <mxCell id="x4UWKTNgoqD-uEIDpkws-17" value="" style="endArrow=none;html=1;rounded=0;entryX=1;entryY=1;entryDx=0;entryDy=0;exitX=0.5;exitY=0;exitDx=0;exitDy=0;" edge="1" parent="1" source="x4UWKTNgoqD-uEIDpkws-15" target="x4UWKTNgoqD-uEIDpkws-12">
          <mxGeometry width="50" height="50" relative="1" as="geometry">
            <mxPoint x="390" y="420" as="sourcePoint" />
            <mxPoint x="440" y="370" as="targetPoint" />
          </mxGeometry>
        </mxCell>
        <mxCell id="x4UWKTNgoqD-uEIDpkws-18" value="улучшить работу серверного оборудования" style="ellipse;whiteSpace=wrap;html=1;" vertex="1" parent="1">
          <mxGeometry x="520" y="280" width="120" height="80" as="geometry" />
        </mxCell>
        <mxCell id="x4UWKTNgoqD-uEIDpkws-19" value="" style="endArrow=none;html=1;rounded=0;entryX=1;entryY=1;entryDx=0;entryDy=0;exitX=0;exitY=0;exitDx=0;exitDy=0;" edge="1" parent="1" source="x4UWKTNgoqD-uEIDpkws-18" target="x4UWKTNgoqD-uEIDpkws-2">
          <mxGeometry width="50" height="50" relative="1" as="geometry">
            <mxPoint x="440" y="240" as="sourcePoint" />
            <mxPoint x="490" y="190" as="targetPoint" />
          </mxGeometry>
        </mxCell>
        <mxCell id="x4UWKTNgoqD-uEIDpkws-20" value="повысить частоту тех обслуживания" style="ellipse;whiteSpace=wrap;html=1;" vertex="1" parent="1">
          <mxGeometry x="360" y="400" width="120" height="80" as="geometry" />
        </mxCell>
        <mxCell id="x4UWKTNgoqD-uEIDpkws-21" value="" style="endArrow=none;html=1;rounded=0;entryX=0;entryY=1;entryDx=0;entryDy=0;exitX=1;exitY=0;exitDx=0;exitDy=0;" edge="1" parent="1" source="x4UWKTNgoqD-uEIDpkws-20" target="x4UWKTNgoqD-uEIDpkws-18">
          <mxGeometry width="50" height="50" relative="1" as="geometry">
            <mxPoint x="480" y="410" as="sourcePoint" />
            <mxPoint x="530" y="360" as="targetPoint" />
          </mxGeometry>
        </mxCell>
        <mxCell id="x4UWKTNgoqD-uEIDpkws-22" value="Обновить устаревшие компоненты" style="ellipse;whiteSpace=wrap;html=1;" vertex="1" parent="1">
          <mxGeometry x="680" y="400" width="120" height="80" as="geometry" />
        </mxCell>
        <mxCell id="x4UWKTNgoqD-uEIDpkws-23" value="" style="endArrow=none;html=1;rounded=0;entryX=0;entryY=0;entryDx=0;entryDy=0;exitX=1;exitY=1;exitDx=0;exitDy=0;" edge="1" parent="1" source="x4UWKTNgoqD-uEIDpkws-18" target="x4UWKTNgoqD-uEIDpkws-22">
          <mxGeometry width="50" height="50" relative="1" as="geometry">
            <mxPoint x="390" y="370" as="sourcePoint" />
            <mxPoint x="440" y="320" as="targetPoint" />
          </mxGeometry>
        </mxCell>
        <mxCell id="x4UWKTNgoqD-uEIDpkws-24" value="найм технических специалистов для поддержания работы портала" style="ellipse;whiteSpace=wrap;html=1;" vertex="1" parent="1">
          <mxGeometry x="840" y="400" width="120" height="80" as="geometry" />
        </mxCell>
        <mxCell id="x4UWKTNgoqD-uEIDpkws-25" value="Подготовка и квалификация персонала" style="ellipse;whiteSpace=wrap;html=1;" vertex="1" parent="1">
          <mxGeometry x="1000" y="280" width="120" height="80" as="geometry" />
        </mxCell>
        <mxCell id="x4UWKTNgoqD-uEIDpkws-26" value="Привести учёт успеваемости к электронному формату" style="ellipse;whiteSpace=wrap;html=1;" vertex="1" parent="1">
          <mxGeometry x="1241" y="160" width="120" height="80" as="geometry" />
        </mxCell>
        <mxCell id="x4UWKTNgoqD-uEIDpkws-27" value="" style="endArrow=none;html=1;rounded=0;entryX=1;entryY=1;entryDx=0;entryDy=0;exitX=0;exitY=0;exitDx=0;exitDy=0;" edge="1" parent="1" source="x4UWKTNgoqD-uEIDpkws-26" target="x4UWKTNgoqD-uEIDpkws-1">
          <mxGeometry width="50" height="50" relative="1" as="geometry">
            <mxPoint x="1050" y="90" as="sourcePoint" />
            <mxPoint x="980" y="210" as="targetPoint" />
          </mxGeometry>
        </mxCell>
        <mxCell id="x4UWKTNgoqD-uEIDpkws-30" value="" style="endArrow=none;html=1;rounded=0;entryX=0;entryY=1;entryDx=0;entryDy=0;exitX=1;exitY=0;exitDx=0;exitDy=0;" edge="1" parent="1" source="x4UWKTNgoqD-uEIDpkws-25" target="x4UWKTNgoqD-uEIDpkws-26">
          <mxGeometry width="50" height="50" relative="1" as="geometry">
            <mxPoint x="1180" y="345" as="sourcePoint" />
            <mxPoint x="1230" y="295" as="targetPoint" />
          </mxGeometry>
        </mxCell>
        <mxCell id="x4UWKTNgoqD-uEIDpkws-31" value="" style="endArrow=none;html=1;rounded=0;entryX=0;entryY=1;entryDx=0;entryDy=0;exitX=1;exitY=0;exitDx=0;exitDy=0;" edge="1" parent="1" source="x4UWKTNgoqD-uEIDpkws-24" target="x4UWKTNgoqD-uEIDpkws-25">
          <mxGeometry width="50" height="50" relative="1" as="geometry">
            <mxPoint x="1080" y="500" as="sourcePoint" />
            <mxPoint x="1130" y="450" as="targetPoint" />
          </mxGeometry>
        </mxCell>
        <mxCell id="x4UWKTNgoqD-uEIDpkws-32" value="обучение учителей работать с порталом&amp;nbsp;" style="ellipse;whiteSpace=wrap;html=1;" vertex="1" parent="1">
          <mxGeometry x="1160" y="400" width="120" height="80" as="geometry" />
        </mxCell>
        <mxCell id="x4UWKTNgoqD-uEIDpkws-33" value="" style="endArrow=none;html=1;rounded=0;entryX=1;entryY=1;entryDx=0;entryDy=0;exitX=0;exitY=0;exitDx=0;exitDy=0;" edge="1" parent="1" source="x4UWKTNgoqD-uEIDpkws-32" target="x4UWKTNgoqD-uEIDpkws-25">
          <mxGeometry width="50" height="50" relative="1" as="geometry">
            <mxPoint x="1090" y="540" as="sourcePoint" />
            <mxPoint x="1140" y="490" as="targetPoint" />
          </mxGeometry>
        </mxCell>
        <mxCell id="x4UWKTNgoqD-uEIDpkws-34" value="Перенос имеющихся данных" style="ellipse;whiteSpace=wrap;html=1;" vertex="1" parent="1">
          <mxGeometry x="1480" y="280" width="120" height="80" as="geometry" />
        </mxCell>
        <mxCell id="x4UWKTNgoqD-uEIDpkws-35" value="" style="endArrow=none;html=1;rounded=0;entryX=1;entryY=1;entryDx=0;entryDy=0;exitX=0;exitY=0;exitDx=0;exitDy=0;" edge="1" parent="1" source="x4UWKTNgoqD-uEIDpkws-34" target="x4UWKTNgoqD-uEIDpkws-26">
          <mxGeometry width="50" height="50" relative="1" as="geometry">
            <mxPoint x="1380" y="380" as="sourcePoint" />
            <mxPoint x="1430" y="330" as="targetPoint" />
          </mxGeometry>
        </mxCell>
        <mxCell id="x4UWKTNgoqD-uEIDpkws-36" value="сбор и перенос архивов" style="ellipse;whiteSpace=wrap;html=1;" vertex="1" parent="1">
          <mxGeometry x="1320" y="400" width="120" height="80" as="geometry" />
        </mxCell>
        <mxCell id="x4UWKTNgoqD-uEIDpkws-37" value="" style="endArrow=none;html=1;rounded=0;entryX=0;entryY=1;entryDx=0;entryDy=0;exitX=1;exitY=0;exitDx=0;exitDy=0;" edge="1" parent="1" source="x4UWKTNgoqD-uEIDpkws-36" target="x4UWKTNgoqD-uEIDpkws-34">
          <mxGeometry width="50" height="50" relative="1" as="geometry">
            <mxPoint x="1490" y="460" as="sourcePoint" />
            <mxPoint x="1540" y="410" as="targetPoint" />
          </mxGeometry>
        </mxCell>
        <mxCell id="x4UWKTNgoqD-uEIDpkws-38" value="перенос данных бумажных журналов" style="ellipse;whiteSpace=wrap;html=1;" vertex="1" parent="1">
          <mxGeometry x="1640" y="400" width="120" height="80" as="geometry" />
        </mxCell>
        <mxCell id="x4UWKTNgoqD-uEIDpkws-39" value="" style="endArrow=none;html=1;rounded=0;entryX=1;entryY=1;entryDx=0;entryDy=0;exitX=0;exitY=0;exitDx=0;exitDy=0;" edge="1" parent="1" source="x4UWKTNgoqD-uEIDpkws-38" target="x4UWKTNgoqD-uEIDpkws-34">
          <mxGeometry width="50" height="50" relative="1" as="geometry">
            <mxPoint x="1620" y="540" as="sourcePoint" />
            <mxPoint x="1670" y="490" as="targetPoint" />
          </mxGeometry>
        </mxCell>
        <mxCell id="x4UWKTNgoqD-uEIDpkws-40" value="" style="endArrow=none;dashed=1;html=1;dashPattern=1 3;strokeWidth=2;rounded=0;" edge="1" parent="1">
          <mxGeometry width="50" height="50" relative="1" as="geometry">
            <mxPoint x="-100" y="260" as="sourcePoint" />
            <mxPoint x="1730" y="260" as="targetPoint" />
          </mxGeometry>
        </mxCell>
      </root>
    </mxGraphModel>
  </diagram>
</mxfile>
